<?xml version="1.0" standalone="no"?>
<!DOCTYPE svg PUBLIC "-//W3C//DTD SVG 20010904//EN"
 "http://www.w3.org/TR/2001/REC-SVG-20010904/DTD/svg10.dtd">
<svg version="1.0" xmlns="http://www.w3.org/2000/svg"
 width="644.000000pt" height="644.000000pt" viewBox="0 0 644.000000 644.000000"
 preserveAspectRatio="xMidYMid meet">
<metadata>
Created by potrace 1.16, written by Peter Selinger 2001-2019
</metadata>
<g transform="translate(0.000000,644.000000) scale(0.100000,-0.100000)"
fill="#000000" stroke="none">
<path d="M2880 6429 c-538 -61 -1036 -243 -1465 -536 -189 -129 -327 -246
-507 -429 -669 -681 -997 -1651 -883 -2614 63 -542 261 -1051 585 -1503 74
-105 102 -139 249 -306 63 -71 251 -246 351 -326 794 -634 1831 -855 2814
-600 1154 299 2062 1240 2324 2410 54 240 75 438 75 710 -1 502 -100 938 -318
1392 -155 323 -356 606 -619 869 -265 264 -487 427 -809 594 -343 178 -713
291 -1097 335 -147 16 -567 19 -700 4z m344 -673 c18 -7 52 -17 74 -21 89 -15
162 -101 161 -190 0 -23 -33 -138 -79 -275 -43 -129 -76 -238 -72 -241 4 -3
169 -61 367 -129 198 -68 376 -132 396 -142 46 -25 72 -70 72 -124 0 -73 -61
-134 -134 -134 -21 0 -198 56 -412 130 -207 72 -380 130 -384 130 -4 0 17 -15
47 -32 298 -172 490 -436 507 -698 10 -163 -42 -298 -161 -415 -125 -124 -282
-183 -512 -194 l-132 -6 33 -80 c17 -44 47 -123 65 -175 18 -52 46 -126 62
-165 16 -38 58 -146 93 -240 35 -93 102 -270 149 -393 93 -240 101 -282 66
-339 -25 -42 -68 -63 -128 -63 -56 0 -92 22 -118 73 -9 17 -66 162 -126 321
-122 323 -246 649 -303 799 -21 54 -41 94 -46 90 -10 -11 -373 -1102 -368
-1107 2 -2 33 2 69 10 121 25 226 12 333 -42 193 -96 304 -323 267 -542 -48
-289 -336 -479 -615 -407 -85 23 -151 62 -222 132 -138 138 -185 331 -127 524
5 18 -35 40 -83 44 -104 10 -206 68 -231 133 -6 15 -104 468 -217 1007 -114
539 -208 982 -210 984 -4 3 -91 -69 -282 -235 -92 -79 -144 -101 -215 -90
-135 22 -206 182 -130 294 15 22 166 159 336 305 332 285 347 295 441 285 58
-7 119 -48 144 -96 18 -35 65 -245 197 -877 30 -143 86 -407 124 -586 39 -180
70 -334 70 -343 0 -9 3 -16 8 -16 4 0 178 513 387 1140 209 627 381 1144 383
1148 1 5 -134 55 -300 113 -325 112 -359 130 -378 197 -26 97 50 182 155 172
11 -1 144 -44 295 -97 151 -52 286 -96 299 -96 22 -2 28 12 107 247 53 157 92
258 106 274 46 49 111 64 172 38z m1365 -3451 c383 -91 519 -576 240 -855
-200 -199 -507 -201 -704 -4 -126 126 -179 298 -144 466 28 130 118 263 227
332 39 24 139 62 182 69 57 9 139 6 199 -8z"/>
<path d="M3111 4458 c-5 -13 -61 -180 -126 -372 -92 -276 -114 -351 -103 -357
54 -36 253 -44 353 -15 127 38 196 92 238 185 26 58 20 183 -12 252 -31 68
-100 158 -162 211 -57 48 -158 118 -172 118 -4 0 -11 -10 -16 -22z"/>
<path d="M2417 2084 c-96 -23 -114 -37 -133 -101 -20 -68 -72 -128 -129 -147
-47 -16 -64 -52 -72 -156 -13 -167 77 -340 223 -425 116 -68 275 -72 399 -11
86 43 175 132 213 214 119 260 -38 572 -316 631 -67 14 -112 13 -185 -5z"/>
<path d="M4359 2242 c-86 -23 -160 -72 -223 -148 -63 -77 -96 -157 -103 -249
-11 -139 37 -264 137 -359 146 -139 344 -165 524 -68 60 33 148 129 181 198
121 256 -23 556 -302 629 -73 19 -131 18 -214 -3z"/>
</g>
</svg>
